<svg xmlns="http://www.w3.org/2000/svg" width="575" height="679" viewBox="0 0 575 679" fill="none">
    <path d="M295.571 185C295.571 185 305.268 186.118 311.915 192.196C318.562 198.274 322.73 201.628 329.641 199.718C335.211 198.173 348.404 204.312 348.404 204.312C348.404 204.312 339.683 201.12 330.515 205.166C323.34 208.337 316.021 208.194 309.374 202.137C304.394 197.603 295.693 199.636 295.693 199.636L295.571 185Z" fill="#ED5726"/>
    <path opacity="0.6" d="M295.551 264.463L0 678.487H574.881L295.551 264.463Z" fill="url(#paint0_linear)"/>
    <rect x="295" y="184" width="1" height="83" fill="#E2E8F0"/>
    <path opacity="0.6" d="M295.551 264.463L367.878 678.487H574.88L295.551 264.463Z" fill="url(#paint1_linear)"/>
    <path d="M58 28.9894C59.2815 26.7431 61.6963 25.2174 64.4607 25.2174C66.1976 25.2174 67.7969 25.8213 69.0572 26.8173C70.7624 23.3844 74.2893 21.0322 78.367 21.0322C80.3687 21.0322 82.2328 21.6043 83.8215 22.5897C86.7764 17.8641 92.0191 14.7066 98.0031 14.7066C99.1152 14.7066 100.196 14.8232 101.244 15.0351C101.043 14.145 100.916 13.2126 100.916 12.259C100.926 5.47789 106.402 0 113.17 0C119.927 0 125.413 5.4779 125.413 12.2484C125.413 12.3862 125.392 12.5345 125.392 12.6723C130.01 13.8908 133.547 17.7263 134.331 22.5155C135.655 21.954 137.095 21.6467 138.621 21.6467C143.418 21.6467 147.485 24.7194 149 29H58V28.9894Z" fill="#F4F4F5"/>
    <path d="M454.709 74.5116C456.198 71.8921 459.018 70.1172 462.238 70.1172C464.256 70.1172 466.117 70.8186 467.592 71.978C469.581 67.9844 473.689 65.2361 478.442 65.2361C480.775 65.2361 482.951 65.9089 484.797 67.054C488.247 61.5431 494.344 57.8644 501.315 57.8644C502.604 57.8644 503.878 57.9932 505.094 58.2366C504.851 57.1917 504.708 56.1181 504.708 55.0016C504.708 47.1289 511.092 40.7449 518.979 40.7449C526.852 40.7449 533.25 47.1289 533.25 55.0016C533.25 55.1734 533.236 55.3308 533.221 55.4883C538.603 56.9054 542.726 61.3857 543.642 66.9538C545.173 66.2954 546.862 65.9375 548.637 65.9375C554.22 65.9375 558.958 69.516 560.733 74.4973H454.709V74.5116Z" fill="#F4F4F5"/>
    <path d="M332 165.767C333.489 163.147 336.309 161.372 339.529 161.372C341.547 161.372 343.408 162.074 344.883 163.233C346.872 159.24 350.98 156.491 355.733 156.491C358.066 156.491 360.242 157.164 362.088 158.309C365.538 152.798 371.635 149.12 378.606 149.12C379.895 149.12 381.169 149.248 382.385 149.492C382.142 148.447 381.999 147.373 381.999 146.257C381.999 138.384 388.383 132 396.27 132C404.143 132 410.541 138.384 410.541 146.257C410.541 146.428 410.527 146.586 410.512 146.743C415.894 148.16 420.017 152.641 420.933 158.209C422.464 157.55 424.154 157.193 425.928 157.193C431.511 157.193 436.249 160.771 438.024 165.752H332V165.767Z" fill="#F4F4F5"/>
    <defs>
        <linearGradient id="paint0_linear" x1="287.44" y1="264.463" x2="218" y2="605.5" gradientUnits="userSpaceOnUse">
            <stop stop-color="#E2E8F0"/>
            <stop offset="1" stop-color="#E2E8F0" stop-opacity="0"/>
        </linearGradient>
        <linearGradient id="paint1_linear" x1="310" y1="281.5" x2="457" y2="574" gradientUnits="userSpaceOnUse">
            <stop stop-color="#E2E8F0"/>
            <stop offset="1" stop-color="white" stop-opacity="0"/>
        </linearGradient>
    </defs>
</svg>