<?xml version="1.0" encoding="UTF-8"?>
<svg viewBox="0 0 28 28"
    xmlns="http://www.w3.org/2000/svg">
    <path d="m20.613 1.6717c1.4573 0 2.8549 0.58431 3.8853 1.6244 1.0305 1.0401 1.6094 2.4508 1.6094 3.9217-4e-3 1.4696-0.5842 2.878-1.6138 3.9172s-2.4249 1.6248-3.8809 1.6289c-0.7223 0.0022-1.4378-0.1397-2.1055-0.4176-0.6678-0.2779-1.2745-0.6863-1.7852-1.2017-0.5108-0.5155-0.9156-1.1277-1.1911-1.8016-0.2755-0.67389-0.4163-1.3961-0.4143-2.1251-2e-3 -0.72902 0.1388-1.4512 0.4143-2.1251 0.2755-0.6739 0.6803-1.2862 1.1911-1.8016 0.5107-0.51543 1.1174-0.92384 1.7852-1.2018 0.6677-0.27791 1.3832-0.41984 2.1055-0.41761z" clip-rule="evenodd" fill="#ffffff" fill-rule="evenodd"/>
    <path d="m27.739 27.951c-0.9116-4.699-0.4551-10.73-5.4697-12.546-3.8162-1.3809-7.5113 2.2518-7.1035 5.8129 0.0473 0.4847 0.192 1.2348 0.4077 1.7195 1.968 4.0682 7.9192 4.1413 12.166 5.0137z" clip-rule="evenodd" fill="#ffffff" fill-rule="evenodd"/>
    <path d="m0 0c0.98398 4.6751 0.6249 10.73 5.6645 12.474 3.8385 1.3317 7.4863-2.3741 7.0284-5.91-0.0696-0.48465-0.1907-1.2362-0.4314-1.7195-2.0376-4.0458-8.0124-4.0219-12.26-4.8451" clip-rule="evenodd" fill="#ffffff" fill-rule="evenodd"/>
    <path d="m0 27.903c4.6555-0.9216 10.654-0.51 12.43-5.5714 1.3681-3.8519-2.2547-7.5577-5.7828-7.1447-0.48016 0.0478-1.247 0.1939-1.7035 0.4116-4.0556 2.0341-4.1029 8.041-4.9436 12.303" clip-rule="evenodd" fill="#ffffff" fill-rule="evenodd"/>
</svg>
